<svg width="28" height="28" viewBox="0 0 28 28" fill="none" xmlns="http://www.w3.org/2000/svg">
  <path d="M9.2 6.8H18.8L22 10V20.2C22 21.2 21.2 22 20.2 22H7.8C6.8 22 6 21.2 6 20.2V8.8C6 7.8 6.8 7 7.8 7H9.2V6.8Z" fill="#6D28D9"/>
  <path d="M16.6 9.8C17.5 9.8 18.2 10.5 18.2 11.4C18.2 12.3 17.5 13 16.6 13C15.7 13 15 12.3 15 11.4C15 10.5 15.7 9.8 16.6 9.8Z" fill="#FFFFFF"/>
  <path d="M11.4 15C12.3 15 13 15.7 13 16.6C13 17.5 12.3 18.2 11.4 18.2C10.5 18.2 9.8 17.5 9.8 16.6C9.8 15.7 10.5 15 11.4 15Z" fill="#FFFFFF"/>
  <path d="M16.8 14.2L12.2 18.8" stroke="#FFFFFF" stroke-width="1.6" stroke-linecap="round"/>
</svg>
