{
  "asset": {
    "version": "2.0",
    "generator": "Harmony Preset"
  },
  "scenes": [
    {
      "nodes": [0]
    }
  ],
  "nodes": [
    {
      "mesh": 0,
      "name": "Preset Triangle"
    }
  ],
  "meshes": [
    {
      "name": "Preset Triangle",
      "primitives": [
        {
          "attributes": {
            "POSITION": 1
          },
          "indices": 0,
          "mode": 4
        }
      ]
    }
  ],
  "buffers": [
    {
      "uri": "data:application/octet-stream;base64,",
      "byteLength": 44
    }
  ],
  "bufferViews": [
    {
      "buffer": 0,
      "byteOffset": 0,
      "byteLength": 6,
      "target": 34963
    },
    {
      "buffer": 0,
      "byteOffset": 8,
      "byteLength": 36,
      "target": 34962
    }
  ],
  "accessors": [
    {
      "bufferView": 0,
      "componentType": 5123,
      "count": 3,
      "type": "SCALAR",
      "max": [2],
      "min": [0]
    },
    {
      "bufferView": 1,
      "componentType": 5126,
      "count": 3,
      "type": "VEC3",
      "max": [1, 1, 0],
      "min": [0, 0, 0]
    }
  ]
}
